PathFileType	4	(X/Y/Z)	Patient4_TMGait_0pt6_01_right_14.trc.trc
DataRate	CameraRate	NumFrames	NumMarkers	Units	OrigDataRate	OrigDataStartFrame	OrigNumFrames
83.333333333333	83.333333333333	5	33	mm	83.333333333333	53	       141
Frame#	Time	Sacral			L.Shoulder			Chest			R.Shoulder			Neck			R.ASIS			L.ASIS			R.Thigh.Superior			R.Thigh.Lateral			R.Thigh.Inferior			R.Patella			L.Thigh.Superior			L.Thigh.Lateral			L.Thigh.Inferior			L.Patella			L.Shank.Superior			L.Shank.Lateral			L.Shank.Inferior			R.Shank.Superior			R.Shank.Lateral			R.Shank.Inferior			R.Heel			R.Midfoot.Superior			R.Midfoot.Lateral			R.Toe			L.Heel			L.Midfoot.Lateral			L.Midfoot.Superior			L.Toe			L.Elbow			L.Wrist			R.Elbow			R.Wrist			
		X1	Y1	Z1	X2	Y2	Z2	X3	Y3	Z3	X4	Y4	Z4	X5	Y5	Z5	X6	Y6	Z6	X7	Y7	Z7	X8	Y8	Z8	X9	Y9	Z9	X10	Y10	Z10	X11	Y11	Z11	X12	Y12	Z12	X13	Y13	Z13	X14	Y14	Z14	X15	Y15	Z15	X16	Y16	Z16	X17	Y17	Z17	X18	Y18	Z18	X19	Y19	Z19	X20	Y20	Z20	X21	Y21	Z21	X22	Y22	Z22	X23	Y23	Z23	X24	Y24	Z24	X25	Y25	Z25	X26	Y26	Z26	X27	Y27	Z27	X28	Y28	Z28	X29	Y29	Z29	X30	Y30	Z30	X31	Y31	Z31	X32	Y32	Z32	X33	Y33	Z33	

53	17.054000000000	644.216815118901	1008.313917907009	511.202783593065	792.108069400514	1439.878926667515	327.655597718579	914.000897846342	1371.915257036386	474.971106148743	848.991714993182	1437.927816621422	658.607389389058	787.689112216216	1497.615639801979	482.399602621750	877.163481175425	944.713138473463	612.939568700865	847.570651469280	968.646273523024	340.847494932410	901.110137476302	737.571596367435	577.161688353281	814.491264699301	632.458317197231	638.381966379656	881.458278965898	577.878870200295	553.614872383529	873.953055946721	491.162567518486	556.293467911433	938.224269658062	789.788439556810	372.674819625112	900.251305788601	662.289803328957	292.648005619627	1004.319701786520	604.648770811967	355.375932954176	1027.892070674898	524.407893783065	346.341493991793	985.857004515270	449.244422908426	335.950115377504	872.373401944030	355.393676881789	288.941966135259	917.129389190140	230.489749005744	339.243556646381	846.094541284736	403.006165436457	560.860516102288	774.107452904981	298.393961373544	619.402399719621	812.972072938322	205.332541720244	551.965124375132	676.127206588427	41.916926057586	515.537732810625	846.473148522042	96.211866418763	555.454388175719	757.747947550551	36.087884073829	592.159988641546	966.172456247103	43.113668643061	585.461292454424	774.498794114556	89.409599797922	381.501719556574	839.655865277192	78.218844249645	295.402090162993	932.673046572858	128.145026451263	313.445855808944	1047.401395279218	61.864893696320	272.781041795477	735.968985900492	1083.284301061942	225.927362671202	755.868814048482	825.059666408303	221.548254933427	966.610781587177	1108.686343521454	768.074732797189	1216.648126657658	1057.611772891930	725.529147478716	
54	17.066000000000	643.201060302209	1008.386141718311	512.032183787216	790.951319291475	1439.828819715790	328.305312390284	913.382973958922	1371.476765076416	475.008964830127	849.319369717888	1437.526328653819	658.930326563900	787.743214936438	1497.413996446252	483.471540935186	876.459881149121	944.378099487668	612.917300879900	846.042760088666	968.426616837214	340.744083184974	898.541464412769	736.844912893275	577.279481142265	810.966276673418	632.246113796862	638.680473213362	877.309942586907	577.159747198822	554.038304165094	868.922141189530	490.580128838073	556.664887195999	935.997968200207	789.350362450216	372.778321880578	898.111817385752	662.086332204650	292.250669091997	1001.418439820824	604.313289415496	355.942436238721	1026.352915326146	526.326187315581	346.549130473630	988.376434041159	451.068862031464	335.436623867960	881.734177260248	350.366204155373	287.276722604738	934.250905979502	228.217845344507	337.591949297803	840.563735105992	402.623403582220	561.166447323466	768.033135648068	298.334027492565	619.658637384507	806.402232005369	205.085594045277	552.137562257881	668.908934176218	41.950042230602	515.576115399067	839.264119461171	96.108221624790	555.470863862743	750.512256057528	36.082639955955	592.101827786316	958.947045780291	42.853759950330	585.516829138158	801.021652675401	77.880068511546	378.832351954654	867.332535626066	71.204396441440	293.020999181269	956.881310870757	126.886605967977	311.561280604463	1075.860212979944	68.143048456071	271.412634064512	727.437125005906	1084.679388330928	226.807114434323	740.698287211471	826.095730907010	223.941804651410	972.935986159186	1111.291840642314	767.852920781143	1224.787600369954	1074.408363681030	723.122800536969	
55	17.078000000000	642.292080782389	1008.411459342797	512.725546936322	789.871176277965	1439.826980264217	328.892240454714	912.798051845208	1371.031783735493	474.994911812973	849.593626595408	1437.040695222402	659.181298216043	787.794507533391	1497.184591731997	484.479909486634	875.864651550458	944.050922875375	612.770588073499	844.608238797232	968.092037539973	340.515068585301	896.011302699957	736.106660002959	577.492395041062	807.298957260041	632.074813973952	638.949792757617	873.047729247537	576.428531037710	554.508506795206	863.760666108555	490.023436571274	557.081058100163	933.480175176241	788.428632889788	372.706914339747	895.514133817805	661.560668284128	291.581974337580	997.994170640467	603.490224591737	356.255107918314	1024.196577898624	527.869299955432	346.612010811564	990.249182744795	452.793342433684	334.955019774754	890.912189385509	345.724124980208	285.525237415818	950.707594574073	226.875542453018	336.239172353965	834.890942650921	402.284432613459	561.498472876652	761.804787943936	298.323949521906	619.934559590596	799.765636817733	204.892771585355	552.357737807806	661.676763484468	41.999730389916	515.616808382811	832.059098246906	96.011306395896	555.503064128149	743.267891614301	36.069131046604	592.029579349821	951.712136278431	42.587597320735	585.571473209736	827.053723972853	68.270463502334	376.302360356761	894.631180597142	65.693835794427	291.111304609464	980.432001099571	126.740563044967	310.279283112932	1103.204893667056	75.322491742696	271.415490735950	719.020893648421	1086.331170947498	227.628332903719	726.306366589462	827.556517218610	226.268782185346	979.011978310051	1113.846089506626	767.452379609166	1231.823852776710	1090.614213657913	720.766974237143	
56	17.090000000000	641.505990476730	1008.394418018739	513.288832771491	788.857402215661	1439.870226059772	329.398367101893	912.241034632689	1370.596044374064	474.918035956454	849.813197651548	1436.502050480753	659.346073683017	787.798680253607	1496.936976188205	485.369780209774	875.382245926476	943.734867531784	612.500556833673	843.267059964043	967.671491785805	340.179610106297	893.511121116521	735.361202089881	577.759121723154	803.513007182046	631.951498816650	639.175892465309	868.676886575096	575.694991521290	554.991036929583	858.486956503248	489.493526176527	557.521838847157	930.733222390319	787.107474171775	372.472505533750	892.568067668786	660.781014348453	290.660232837332	994.214010478717	602.283429857397	356.278577730738	1021.552309185115	529.074772935206	346.538544312198	991.540787199575	454.430369317475	334.507879186900	899.771534627567	341.572894669487	283.764925238865	966.279223211535	226.454651085333	335.187314308486	829.088729535884	401.990113114506	561.840205876428	755.430557899243	298.370731848590	620.221479389397	793.068656841885	204.758090858201	552.617708340075	654.430761878672	42.066667689336	515.659124821715	824.860589137815	95.927806709331	555.556102445155	736.016965317865	36.049818452344	591.950049026894	944.469922294977	42.325536421334	585.624150119416	852.136579765693	60.673469269816	373.989522987597	921.103260153293	61.666540836695	289.725965753645	1003.009567120798	127.613518343075	309.588450448321	1129.113511119023	83.124880932160	272.744637445850	710.806994592094	1088.202140018658	228.409840994602	712.688851943526	829.357912063330	228.500790387947	984.812111915407	1116.357935011868	766.889058265931	1237.823834677574	1106.117609455353	718.475711639120	
57	17.102000000000	640.855828732144	1008.335860498998	513.725848692109	787.894637935859	1439.948220726776	329.806851749432	911.704439919071	1370.180282897454	474.766231987028	849.978841211347	1435.937579307943	659.411606787154	787.719136266416	1496.676148212569	486.097587863570	875.010568322776	943.427932735488	612.105456780669	842.018941390911	967.193337156740	339.749553384557	891.039287809945	734.611443242408	578.028200834040	799.650025127349	631.877280504486	639.341405077199	864.224165054208	574.967809467178	555.446708605342	853.138455455474	488.986688413242	557.959545259590	927.846122127222	785.491501115231	372.084365567026	889.393639757196	659.808429163156	289.536467162981	990.261352671994	600.799000584680	356.002054196817	1018.567643155780	529.974910494115	346.349819164063	992.328668034948	455.973960587739	334.090175156318	908.140036115077	337.972506520387	282.094602152849	980.751308187024	226.866377952721	334.410311205902	823.189253599331	401.737137371943	562.172442829044	748.937570137980	298.477587752057	620.508068157952	786.325283993779	204.679980006775	552.904809257833	647.172630164791	42.151595947042	515.703201187231	817.671282871647	95.863155881627	555.632582333294	728.762281693929	36.028348108248	591.871021878643	937.223763957150	42.076673730542	585.673214070393	875.819346890853	55.047622348044	371.985508283086	946.257229705648	59.006174515615	288.879897542436	1024.281545889146	129.327465842599	309.413403075512	1153.247298073845	91.197775924109	275.174332016369	702.880751089825	1090.239044261923	229.161143523618	699.848913893314	831.411724176834	230.611759404516	990.302049616760	1118.828704252249	766.182005231416	1242.862153800426	1120.823261615173	716.263866519853	
